PathFileType	4	(X/Y/Z)	C:\Users\WrightLab\Desktop\Jo\P4V17.trc
DataRate	CameraRate	NumFrames	NumMarkers	Units	OrigDataRate	OrigDataStartFrame	OrigNumFrames
100.00	100.00	       30	19	mm	100.00	187	       744
Frame#	Time	Headset_Front			Headset_Back			Headset_Left			Headset_Right			Left_Shoulder			Right_Shoulder			Sternum			C7			Left Elbow			Right Elbow			Left Wrist			Right Wrist			Left ASIS			Right ASIS			S2			Left Knee			Right Knee			Left Ankle			Right Ankle			
		X1	Y1	Z1	X2	Y2	Z2	X3	Y3	Z3	X4	Y4	Z4	X5	Y5	Z5	X6	Y6	Z6	X7	Y7	Z7	X8	Y8	Z8	X9	Y9	Z9	X10	Y10	Z10	X11	Y11	Z11	X12	Y12	Z12	X13	Y13	Z13	X14	Y14	Z14	X15	Y15	Z15	X16	Y16	Z16	X17	Y17	Z17	X18	Y18	Z18	X19	Y19	Z19	

187	1.860																									230.94353	1135.90662	-1592.19580				184.91251	869.13715	-1438.21240				110.19725	997.90656	-1512.42590							100.54733	505.41199	-1560.40601										
188	1.870																									230.89366	1135.95728	-1591.91284				184.84482	867.12628	-1441.93372				110.17232	997.69019	-1512.67139							100.53839	505.36630	-1560.49255										
189	1.880																									230.84827	1136.02917	-1591.53577				184.43054	866.51605	-1441.64868				110.10486	997.45441	-1513.34192							100.56833	505.44785	-1560.19495										
190	1.890																									230.79883	1136.12085	-1591.06250				184.33734	867.71161	-1437.61145				108.56715	998.32190	-1509.86108							100.83526	504.59119	-1560.56042										
191	1.900																									230.72025	1136.22913	-1590.48486				184.12759	867.43665	-1437.54993				107.74269	998.21411	-1508.71362							101.50841	503.80112	-1562.06738										
192	1.910																									230.59375	1136.33386	-1589.87891				183.70909	866.91150	-1436.95459				106.91129	998.82483	-1507.56519							102.09158	502.98532	-1562.65295										
193	1.920																									230.51425	1136.46814	-1589.17932				183.42387	866.57733	-1436.69128				106.72073	998.29901	-1509.45056							102.17527	503.19366	-1561.81738										
194	1.930																									230.39240	1136.63525	-1588.28772				183.10036	866.28485	-1436.34937				105.36401	997.73181	-1508.63904							102.26149	503.36948	-1560.95276										
195	1.940																									230.19402	1136.05725	-1585.79565				182.53206	865.68384	-1435.50647				105.27241	997.51630	-1509.54468							102.28330	503.40631	-1560.73315										
196	1.950																									229.98488	1136.25073	-1584.70105				181.99989	865.09155	-1434.69629				103.13647	998.09229	-1505.10986							102.26160	503.29092	-1560.94385										
197	1.960																									230.34955	1135.14063	-1580.35571				181.17453	864.24835	-1433.55127				102.32614	997.70953	-1504.91748							102.19797	503.04449	-1561.57080										
198	1.970																									228.73492	1135.91663	-1579.96069				180.61621	863.67017	-1432.46985				102.15678	997.24011	-1506.58167							100.78788	503.77420	-1558.75000										
199	1.980																									228.63216	1135.33301	-1576.22534				179.66356	862.78931	-1430.79211				99.90455	997.85089	-1502.23157							99.85259	504.08954	-1557.33472										
200	1.990																									228.20171	1135.68933	-1574.17517				178.44951	862.81189	-1430.46289				99.18575	997.02814	-1502.21790							98.64753	505.59088	-1554.47070										
201	2.000																									227.27686	1135.14514	-1570.06750				177.56413	862.44690	-1429.30896				98.16167	997.28094	-1500.89661							97.48170	507.02020	-1552.62158										
202	2.010																									226.72682	1135.60522	-1567.43250				176.54944	861.93024	-1427.83447				95.79736	998.39124	-1495.30774							96.67174	506.71652	-1552.21545										
203	2.020																									225.53378	1136.32678	-1564.99292				175.72035	860.84741	-1425.28149				94.78151	998.09406	-1494.38855							96.44442	506.01450	-1554.45044	-281.98495	525.40405	-1470.67029							
204	2.030																									223.88013	1136.08533	-1560.80310				174.13846	860.11243	-1423.11609				93.52362	997.46393	-1492.64404							95.45201	505.11453	-1555.82898	-285.00644	527.05585	-1471.19458							
205	2.040																									223.11388	1136.65613	-1557.47058				172.21025	859.31903	-1420.45325				92.32072	996.97852	-1493.38428							93.43246	504.88620	-1556.79504	-288.43256	527.41431	-1469.59998							
206	2.050																									222.55698	1136.33887	-1552.13208				170.63275	859.40698	-1419.07764				90.12809	995.56488	-1492.46814							91.36721	505.54187	-1555.14307	-293.37045	530.17523	-1461.12756							
207	2.060																									220.91591	1135.30505	-1545.31641				169.09818	859.25024	-1417.15869				89.80812	994.44116	-1495.53943							89.98344	506.69760	-1554.33740	-296.62640	531.38055	-1463.11694							
208	2.070																									218.34497	1137.61682	-1545.29553				166.47797	859.07080	-1415.09973				86.98496	994.71906	-1489.87854							89.21882	506.55701	-1553.49084	-301.92462	534.49451	-1456.00061							
209	2.080																									217.21686	1137.72693	-1540.20679				164.05582	858.15289	-1411.95471				85.71918	994.26453	-1488.23706							89.04945	506.06604	-1555.14111	-305.31171	534.73438	-1454.18787							
210	2.090																									215.25975	1138.23767	-1535.85193				161.57054	857.84229	-1409.56152				84.12067	994.88019	-1485.51672							86.81927	506.82117	-1550.99365	-309.98483	536.62622	-1452.39502							
211	2.100																									213.28857	1138.76953	-1531.38403				158.79173	857.50684	-1406.36816				82.28043	994.88654	-1482.45813							85.64656	506.91238	-1550.79602	-313.78723	538.15747	-1449.63525							
212	2.110																									211.91951	1138.91113	-1525.97278				156.52327	857.20459	-1403.06152				79.91397	995.47253	-1477.91272							83.78602	506.85327	-1551.03516	-319.24719	540.85010	-1443.65601							
213	2.120																									208.49255	1138.70422	-1520.30725				153.44675	856.32971	-1398.41504				78.35668	994.93616	-1476.37891							82.36749	505.87680	-1553.23792	-322.85019	539.92072	-1444.19482							
214	2.130																									207.08904	1139.41125	-1515.87854				150.85374	856.46429	-1395.41321				76.07511	993.11890	-1476.34351							80.13971	506.01440	-1551.19495	-327.98782	543.05090	-1436.32922							
215	2.140																									205.20534	1139.19055	-1509.49536				146.90082	856.68689	-1392.70483				73.58053	992.00214	-1475.71619							78.93881	505.50250	-1549.80872	-332.57993	544.35419	-1435.38892							
216	2.150																									202.24126	1139.89368	-1505.28320				143.71078	856.68921	-1389.25208				71.39610	990.98975	-1472.79028							77.60938	504.75351	-1548.14954	-336.75043	546.73285	-1432.72266							
